<mxfile host="app.diagrams.net" modified="2021-11-16T06:40:35.516Z" agent="5.0 (Windows NT 10.0; Win64; x64) AppleWebKit/537.36 (KHTML, like Gecko) Chrome/95.0.4638.69 Safari/537.36" etag="gV7tt-8IqnvxMNt-5i-9" version="14.6.11" type="github">
  <diagram id="99S5stzERS1PDCSJK2yA" name="第 1 页">
    <mxGraphModel dx="1422" dy="800" grid="1" gridSize="10" guides="1" tooltips="1" connect="1" arrows="1" fold="1" page="1" pageScale="1" pageWidth="1920" pageHeight="1200" math="0" shadow="0">
      <root>
        <mxCell id="0" />
        <mxCell id="1" parent="0" />
        <mxCell id="M3MyoAIeJFfrb7R_QuGx-3" value="" style="edgeStyle=orthogonalEdgeStyle;rounded=0;orthogonalLoop=1;jettySize=auto;html=1;" edge="1" parent="1" source="M3MyoAIeJFfrb7R_QuGx-1" target="M3MyoAIeJFfrb7R_QuGx-2">
          <mxGeometry relative="1" as="geometry" />
        </mxCell>
        <mxCell id="M3MyoAIeJFfrb7R_QuGx-5" style="edgeStyle=orthogonalEdgeStyle;rounded=0;orthogonalLoop=1;jettySize=auto;html=1;" edge="1" parent="1" source="M3MyoAIeJFfrb7R_QuGx-1" target="M3MyoAIeJFfrb7R_QuGx-4">
          <mxGeometry relative="1" as="geometry" />
        </mxCell>
        <mxCell id="M3MyoAIeJFfrb7R_QuGx-15" value="" style="edgeStyle=orthogonalEdgeStyle;rounded=0;orthogonalLoop=1;jettySize=auto;html=1;fontSize=20;" edge="1" parent="1" source="M3MyoAIeJFfrb7R_QuGx-1" target="M3MyoAIeJFfrb7R_QuGx-14">
          <mxGeometry relative="1" as="geometry" />
        </mxCell>
        <mxCell id="M3MyoAIeJFfrb7R_QuGx-16" value="行为" style="edgeLabel;html=1;align=center;verticalAlign=middle;resizable=0;points=[];fontSize=20;" vertex="1" connectable="0" parent="M3MyoAIeJFfrb7R_QuGx-15">
          <mxGeometry x="-0.1471" y="1" relative="1" as="geometry">
            <mxPoint as="offset" />
          </mxGeometry>
        </mxCell>
        <mxCell id="M3MyoAIeJFfrb7R_QuGx-1" value="&lt;span style=&quot;font-size: 20px&quot;&gt;Z公司&lt;br&gt;&lt;/span&gt;" style="rounded=1;whiteSpace=wrap;html=1;fillColor=#dae8fc;strokeColor=#6c8ebf;" vertex="1" parent="1">
          <mxGeometry x="320" y="150" width="120" height="60" as="geometry" />
        </mxCell>
        <mxCell id="M3MyoAIeJFfrb7R_QuGx-7" value="" style="edgeStyle=orthogonalEdgeStyle;rounded=0;orthogonalLoop=1;jettySize=auto;html=1;fontSize=20;" edge="1" parent="1" source="M3MyoAIeJFfrb7R_QuGx-2" target="M3MyoAIeJFfrb7R_QuGx-6">
          <mxGeometry relative="1" as="geometry" />
        </mxCell>
        <mxCell id="M3MyoAIeJFfrb7R_QuGx-2" value="&lt;font style=&quot;font-size: 20px&quot;&gt;环境事务部门&lt;/font&gt;" style="whiteSpace=wrap;html=1;rounded=1;" vertex="1" parent="1">
          <mxGeometry x="210" y="310" width="120" height="60" as="geometry" />
        </mxCell>
        <mxCell id="M3MyoAIeJFfrb7R_QuGx-9" style="edgeStyle=orthogonalEdgeStyle;rounded=0;orthogonalLoop=1;jettySize=auto;html=1;entryX=1;entryY=0.5;entryDx=0;entryDy=0;fontSize=20;exitX=0.5;exitY=1;exitDx=0;exitDy=0;" edge="1" parent="1" source="M3MyoAIeJFfrb7R_QuGx-4" target="M3MyoAIeJFfrb7R_QuGx-6">
          <mxGeometry relative="1" as="geometry" />
        </mxCell>
        <mxCell id="M3MyoAIeJFfrb7R_QuGx-12" value="反对" style="edgeLabel;html=1;align=center;verticalAlign=middle;resizable=0;points=[];fontSize=20;" vertex="1" connectable="0" parent="M3MyoAIeJFfrb7R_QuGx-9">
          <mxGeometry x="-0.4431" y="4" relative="1" as="geometry">
            <mxPoint as="offset" />
          </mxGeometry>
        </mxCell>
        <mxCell id="M3MyoAIeJFfrb7R_QuGx-4" value="&lt;font style=&quot;font-size: 20px&quot;&gt;经理&lt;br&gt;&lt;span&gt;菲尔·波特&lt;/span&gt;&lt;/font&gt;" style="ellipse;whiteSpace=wrap;html=1;rounded=1;fontSize=20;fillColor=#f8cecc;strokeColor=#b85450;" vertex="1" parent="1">
          <mxGeometry x="410" y="310" width="140" height="80" as="geometry" />
        </mxCell>
        <mxCell id="M3MyoAIeJFfrb7R_QuGx-10" style="edgeStyle=orthogonalEdgeStyle;rounded=0;orthogonalLoop=1;jettySize=auto;html=1;entryX=0;entryY=0.5;entryDx=0;entryDy=0;fontSize=20;" edge="1" parent="1">
          <mxGeometry relative="1" as="geometry">
            <mxPoint x="186" y="480" as="sourcePoint" />
            <mxPoint x="321" y="180" as="targetPoint" />
            <Array as="points">
              <mxPoint x="151" y="480" />
              <mxPoint x="151" y="180" />
            </Array>
          </mxGeometry>
        </mxCell>
        <mxCell id="M3MyoAIeJFfrb7R_QuGx-11" value="提出建议：&lt;br&gt;购买控制污染的设备" style="edgeLabel;html=1;align=center;verticalAlign=middle;resizable=0;points=[];fontSize=20;" vertex="1" connectable="0" parent="M3MyoAIeJFfrb7R_QuGx-10">
          <mxGeometry x="-0.1124" y="1" relative="1" as="geometry">
            <mxPoint x="10" y="-51" as="offset" />
          </mxGeometry>
        </mxCell>
        <mxCell id="M3MyoAIeJFfrb7R_QuGx-6" value="&lt;font style=&quot;font-size: 20px&quot;&gt;工程师&lt;br&gt;大卫·杰克逊&lt;/font&gt;" style="ellipse;whiteSpace=wrap;html=1;rounded=1;fillColor=#f8cecc;strokeColor=#b85450;" vertex="1" parent="1">
          <mxGeometry x="196.25" y="440" width="147.5" height="80" as="geometry" />
        </mxCell>
        <mxCell id="M3MyoAIeJFfrb7R_QuGx-38" value="破坏" style="edgeStyle=orthogonalEdgeStyle;rounded=0;orthogonalLoop=1;jettySize=auto;html=1;fontSize=20;" edge="1" parent="1" source="M3MyoAIeJFfrb7R_QuGx-14" target="M3MyoAIeJFfrb7R_QuGx-37">
          <mxGeometry relative="1" as="geometry">
            <Array as="points">
              <mxPoint x="695" y="380" />
              <mxPoint x="695" y="380" />
            </Array>
          </mxGeometry>
        </mxCell>
        <mxCell id="M3MyoAIeJFfrb7R_QuGx-53" value="忽视" style="edgeStyle=orthogonalEdgeStyle;rounded=0;orthogonalLoop=1;jettySize=auto;html=1;exitX=1;exitY=0.5;exitDx=0;exitDy=0;fontSize=20;" edge="1" parent="1" source="M3MyoAIeJFfrb7R_QuGx-14" target="M3MyoAIeJFfrb7R_QuGx-43">
          <mxGeometry relative="1" as="geometry" />
        </mxCell>
        <mxCell id="M3MyoAIeJFfrb7R_QuGx-14" value="&lt;span style=&quot;font-size: 20px;&quot;&gt;将生产过程中产生的铅和砷排入城市的下水道中&lt;/span&gt;" style="whiteSpace=wrap;html=1;rounded=1;fontSize=20;" vertex="1" parent="1">
          <mxGeometry x="580" y="280" width="230" height="60" as="geometry" />
        </mxCell>
        <mxCell id="M3MyoAIeJFfrb7R_QuGx-36" value="&lt;font style=&quot;font-size: 31px&quot;&gt;吉尔班城&lt;/font&gt;" style="text;html=1;strokeColor=#82b366;fillColor=#d5e8d4;align=center;verticalAlign=middle;whiteSpace=wrap;rounded=0;fontSize=20;" vertex="1" parent="1">
          <mxGeometry x="430" y="60" width="280" height="50" as="geometry" />
        </mxCell>
        <mxCell id="M3MyoAIeJFfrb7R_QuGx-37" value="&lt;font style=&quot;font-size: 20px&quot;&gt;产业（&lt;span&gt;淤泥制成肥料&lt;/span&gt;）&lt;/font&gt;" style="whiteSpace=wrap;html=1;rounded=1;fontSize=20;" vertex="1" parent="1">
          <mxGeometry x="580" y="410" width="240" height="60" as="geometry" />
        </mxCell>
        <mxCell id="M3MyoAIeJFfrb7R_QuGx-44" value="设定" style="edgeStyle=orthogonalEdgeStyle;rounded=0;orthogonalLoop=1;jettySize=auto;html=1;fontSize=20;" edge="1" parent="1" source="M3MyoAIeJFfrb7R_QuGx-40" target="M3MyoAIeJFfrb7R_QuGx-43">
          <mxGeometry relative="1" as="geometry" />
        </mxCell>
        <mxCell id="M3MyoAIeJFfrb7R_QuGx-40" value="&lt;span style=&quot;font-size: 20px&quot;&gt;市政府&lt;br&gt;&lt;/span&gt;" style="rounded=1;whiteSpace=wrap;html=1;fillColor=#dae8fc;strokeColor=#6c8ebf;" vertex="1" parent="1">
          <mxGeometry x="900" y="150" width="120" height="60" as="geometry" />
        </mxCell>
        <mxCell id="M3MyoAIeJFfrb7R_QuGx-45" style="edgeStyle=orthogonalEdgeStyle;rounded=0;orthogonalLoop=1;jettySize=auto;html=1;entryX=1;entryY=0.5;entryDx=0;entryDy=0;fontSize=20;" edge="1" parent="1" source="M3MyoAIeJFfrb7R_QuGx-43" target="M3MyoAIeJFfrb7R_QuGx-37">
          <mxGeometry relative="1" as="geometry">
            <Array as="points">
              <mxPoint x="960" y="440" />
            </Array>
          </mxGeometry>
        </mxCell>
        <mxCell id="M3MyoAIeJFfrb7R_QuGx-46" value="保护" style="edgeLabel;html=1;align=center;verticalAlign=middle;resizable=0;points=[];fontSize=20;" vertex="1" connectable="0" parent="M3MyoAIeJFfrb7R_QuGx-45">
          <mxGeometry x="-0.525" relative="1" as="geometry">
            <mxPoint as="offset" />
          </mxGeometry>
        </mxCell>
        <mxCell id="M3MyoAIeJFfrb7R_QuGx-43" value="&lt;font style=&quot;font-size: 20px&quot;&gt;严格的标准&lt;/font&gt;" style="whiteSpace=wrap;html=1;rounded=1;" vertex="1" parent="1">
          <mxGeometry x="900" y="280" width="120" height="60" as="geometry" />
        </mxCell>
        <mxCell id="M3MyoAIeJFfrb7R_QuGx-54" value="" style="rounded=0;whiteSpace=wrap;html=1;fontSize=20;fillColor=none;" vertex="1" parent="1">
          <mxGeometry x="40" y="30" width="1040" height="520" as="geometry" />
        </mxCell>
      </root>
    </mxGraphModel>
  </diagram>
</mxfile>
